<svg xmlns="http://www.w3.org/2000/svg" width="16" height="17" viewBox="0 0 16 17" fill="none">
  <path fill-rule="evenodd" clip-rule="evenodd" d="M6.6665 3C6.6223 3 6.57991 3.01756 6.54865 3.04882C6.5174 3.08007 6.49984 3.12246 6.49984 3.16667V4.66667H9.49984V3.16667C9.49984 3.12246 9.48228 3.08007 9.45102 3.04882C9.41976 3.01756 9.37737 3 9.33317 3H6.6665ZM3.87657 5.66667L4.49811 13.1251C4.49926 13.139 4.49984 13.1528 4.49984 13.1667C4.49984 13.3877 4.58763 13.5996 4.74391 13.7559C4.9002 13.9122 5.11216 14 5.33317 14H10.6665C10.8875 14 11.0995 13.9122 11.2558 13.7559C11.412 13.5996 11.4998 13.3877 11.4998 13.1667C11.4998 13.1528 11.5004 13.139 11.5016 13.1251L12.1231 5.66667H3.87657ZM13.1266 5.66667L12.4997 13.1891C12.4939 13.6672 12.3014 14.1245 11.9629 14.463C11.619 14.8068 11.1527 15 10.6665 15H5.33317C4.84694 15 4.38062 14.8068 4.03681 14.463C3.69828 14.1245 3.50582 13.6672 3.49997 13.1891L2.8731 5.66667H2.6665C2.39036 5.66667 2.1665 5.44281 2.1665 5.16667C2.1665 4.89052 2.39036 4.66667 2.6665 4.66667H5.49984V3.16667C5.49984 2.85725 5.62275 2.5605 5.84155 2.34171C6.06034 2.12292 6.35708 2 6.6665 2H9.33317C9.64259 2 9.93934 2.12292 10.1581 2.34171C10.3769 2.5605 10.4998 2.85725 10.4998 3.16667V4.66667H13.3332C13.6093 4.66667 13.8332 4.89052 13.8332 5.16667C13.8332 5.44281 13.6093 5.66667 13.3332 5.66667H13.1266ZM6.6665 7.33333C6.94265 7.33333 7.1665 7.55719 7.1665 7.83333V11.8333C7.1665 12.1095 6.94265 12.3333 6.6665 12.3333C6.39036 12.3333 6.1665 12.1095 6.1665 11.8333V7.83333C6.1665 7.55719 6.39036 7.33333 6.6665 7.33333ZM9.33317 7.33333C9.60931 7.33333 9.83317 7.55719 9.83317 7.83333V11.8333C9.83317 12.1095 9.60931 12.3333 9.33317 12.3333C9.05703 12.3333 8.83317 12.1095 8.83317 11.8333V7.83333C8.83317 7.55719 9.05703 7.33333 9.33317 7.33333Z" fill="white"/>
</svg>