<svg xmlns="http://www.w3.org/2000/svg" width="20" height="21" viewBox="0 0 20 21" fill="none">
  <path fill-rule="evenodd" clip-rule="evenodd" d="M11.6666 2.375C12.0118 2.375 12.2916 2.65482 12.2916 3V6.33333C12.2916 6.38859 12.3136 6.44158 12.3526 6.48065C12.3917 6.51972 12.4447 6.54167 12.5 6.54167H15.8333C16.1785 6.54167 16.4583 6.82149 16.4583 7.16667C16.4583 7.51184 16.1785 7.79167 15.8333 7.79167H12.5C12.1132 7.79167 11.7423 7.63802 11.4688 7.36453C11.1953 7.09104 11.0416 6.72011 11.0416 6.33333V3C11.0416 2.65482 11.3214 2.375 11.6666 2.375Z" fill="#111827"/>
  <path fill-rule="evenodd" clip-rule="evenodd" d="M5.83329 3.625C5.55703 3.625 5.29207 3.73475 5.09672 3.9301C4.90137 4.12545 4.79163 4.3904 4.79163 4.66667V16.3333C4.79163 16.6096 4.90137 16.8746 5.09672 17.0699C5.29207 17.2653 5.55703 17.375 5.83329 17.375H14.1666C14.4429 17.375 14.7078 17.2653 14.9032 17.0699C15.0985 16.8746 15.2083 16.6096 15.2083 16.3333V7.42555L11.4077 3.625H5.83329ZM4.21284 3.04621C4.64261 2.61644 5.22551 2.375 5.83329 2.375H11.6666C11.8324 2.375 11.9914 2.44085 12.1086 2.55806L16.2752 6.72472C16.3924 6.84193 16.4583 7.00091 16.4583 7.16667V16.3333C16.4583 16.9411 16.2169 17.524 15.7871 17.9538C15.3573 18.3836 14.7744 18.625 14.1666 18.625H5.83329C5.2255 18.625 4.64261 18.3836 4.21284 17.9538C3.78307 17.524 3.54163 16.9411 3.54163 16.3333V4.66667C3.54163 4.05888 3.78307 3.47598 4.21284 3.04621Z" fill="#111827"/>
  <path fill-rule="evenodd" clip-rule="evenodd" d="M9.99996 9.04167C10.3451 9.04167 10.625 9.32149 10.625 9.66667V14.6667C10.625 15.0118 10.3451 15.2917 9.99996 15.2917C9.65478 15.2917 9.37496 15.0118 9.37496 14.6667V9.66667C9.37496 9.32149 9.65478 9.04167 9.99996 9.04167Z" fill="#111827"/>
  <path fill-rule="evenodd" clip-rule="evenodd" d="M7.05802 11.7247C7.3021 11.4806 7.69782 11.4806 7.9419 11.7247L9.99996 13.7828L12.058 11.7247C12.3021 11.4806 12.6978 11.4806 12.9419 11.7247C13.186 11.9688 13.186 12.3645 12.9419 12.6086L10.4419 15.1086C10.1978 15.3527 9.8021 15.3527 9.55802 15.1086L7.05802 12.6086C6.81394 12.3645 6.81394 11.9688 7.05802 11.7247Z" fill="#111827"/>
</svg>