<svg xmlns="http://www.w3.org/2000/svg" width="16" height="17" viewBox="0 0 16 17" fill="none">
  <path fill-rule="evenodd" clip-rule="evenodd" d="M10.1801 2.51774C10.9579 2.41828 11.7449 2.73636 12.5445 3.48872L12.5454 3.48959C13.3477 4.24832 13.7129 5.01798 13.6581 5.8019C13.6052 6.5594 13.166 7.20054 12.6653 7.72958M12.6653 7.72958L7.19469 13.52C7.04046 13.688 6.8328 13.8302 6.63593 13.9355C6.43654 14.0421 6.2059 14.1333 5.98937 14.1718L5.98604 14.1724L3.84014 14.5389C3.31976 14.6287 2.82076 14.4986 2.4653 14.1615C2.11033 13.8249 1.95347 13.334 2.01158 12.811L2.01175 12.8095L2.25949 10.6401C2.28826 10.4243 2.3684 10.1908 2.46287 9.98821C2.55701 9.78636 2.68544 9.57233 2.83743 9.41053L2.83841 9.4095L8.31174 3.61616C8.81276 3.08691 9.42846 2.61386 10.1801 2.51774M9.03829 4.30327L3.56628 10.0952C3.51163 10.1535 3.43656 10.2663 3.36917 10.4109C3.30299 10.5528 3.26325 10.684 3.25133 10.7684L3.00546 12.9214L3.00539 12.9221C2.97705 13.1787 3.0568 13.3443 3.15341 13.4359C3.24961 13.5271 3.41728 13.5971 3.67023 13.5535L3.671 13.5533L5.81574 13.187C5.89926 13.1719 6.02794 13.1266 6.16444 13.0536C6.30283 12.9796 6.40693 12.8998 6.45904 12.8427L6.46501 12.8361L11.9384 7.04283C12.3842 6.57194 12.6319 6.14283 12.6606 5.73217C12.6874 5.34786 12.5294 4.85103 11.8588 4.21667C11.192 3.58934 10.689 3.46081 10.3069 3.50967C9.89866 3.56187 9.48384 3.83269 9.03829 4.30327Z" fill="white"/>
  <path fill-rule="evenodd" clip-rule="evenodd" d="M7.68488 4.43216C7.95773 4.38965 8.21338 4.57638 8.25589 4.84923C8.50731 6.46298 9.81699 7.69805 11.4453 7.86205C11.72 7.88973 11.9203 8.13489 11.8927 8.40964C11.865 8.68439 11.6198 8.88469 11.3451 8.85702C9.26671 8.64769 7.58973 7.06943 7.26781 5.00317C7.2253 4.73032 7.41203 4.47467 7.68488 4.43216Z" fill="white"/>
</svg>