<svg xmlns="http://www.w3.org/2000/svg" width="16" height="17" viewBox="0 0 16 17" fill="none">
  <g clip-path="url(#clip0_1879_599)">
    <path fill-rule="evenodd" clip-rule="evenodd" d="M7.99965 6.61331C6.95579 6.61331 6.11299 7.45612 6.11299 8.49998C6.11299 9.54384 6.95579 10.3866 7.99965 10.3866C9.04351 10.3866 9.88632 9.54384 9.88632 8.49998C9.88632 7.45612 9.04351 6.61331 7.99965 6.61331ZM5.11299 8.49998C5.11299 6.90384 6.40351 5.61331 7.99965 5.61331C9.59579 5.61331 10.8863 6.90384 10.8863 8.49998C10.8863 10.0961 9.59579 11.3866 7.99965 11.3866C6.40351 11.3866 5.11299 10.0961 5.11299 8.49998Z" fill="white"/>
    <path fill-rule="evenodd" clip-rule="evenodd" d="M1.50465 6.49796C3.09859 3.99238 5.43433 2.47998 7.99965 2.47998C10.5651 2.47998 12.9009 3.99251 14.4949 6.49828C14.8582 7.06784 15.023 7.79742 15.023 8.49665C15.023 9.19588 14.8582 9.92545 14.4949 10.495C12.9009 13.0008 10.5651 14.5133 7.99965 14.5133C5.43422 14.5133 3.09839 13.0008 1.50444 10.495C1.14112 9.92545 0.976318 9.19588 0.976318 8.49665C0.976318 7.79728 1.14118 7.06756 1.50465 6.49796ZM7.99965 3.47998C5.85842 3.47998 3.80758 4.74078 2.3482 7.03501L2.34778 7.03566C2.11139 7.40601 1.97632 7.93614 1.97632 8.49665C1.97632 9.05715 2.11139 9.58729 2.34778 9.95763L2.3482 9.95829C3.80758 12.2525 5.85842 13.5133 7.99965 13.5133C10.1409 13.5133 12.1917 12.2525 13.6511 9.95829L13.6515 9.95763C13.8879 9.58729 14.023 9.05715 14.023 8.49665C14.023 7.93614 13.8879 7.40601 13.6515 7.03566L13.6511 7.03501C12.1917 4.74078 10.1409 3.47998 7.99965 3.47998Z" fill="white"/>
  </g>
  <defs>
    <clipPath id="clip0_1879_599">
      <rect width="16" height="16" fill="white" transform="translate(-0.000244141 0.5)"/>
    </clipPath>
  </defs>
</svg>